************************************************

Brave 2012 Arabic 1080p BLuRay X264 AC3 - alrmothe

************************************************

TiTLE: Brave
YEAR:2012
GENRE :  Animation | Action | Adventure
iMDB URL : http://www.imdb.com/title/tt1217209/
SIZE : 6.21 GB
Format : mkv 
Overall bit rate:9452 Kbps
Sub: No 

Encoded / Released By :alrmothe
****************************

Video
Format : AVC
Format/Info : Advanced Video Codec
Format profile : High@L4.1
Runtime: 1h 34min 12sec
bit rate: 9000 Kbps
Width: 1920 pixels
Height: 804 pixels
Display aspect ratio : 2.40:1
Frame rate: 23.976 fps
Bit depth : 8 bits
Bits/(Pixel*Frame) : 0.243
Stream size : 5.80 GiB (93%)

Audio: Arabic
Format: AC3
Bit rate: 448 Kbps
Sampling rate: 48.0 KHz
Channel(s): 6 channels(5.1)
Stream size : 302 MiB (5%)
Language : Arabic
***************************************
